<svg width="18" height="19" viewBox="0 0 18 19" fill="none" xmlns="http://www.w3.org/2000/svg">
<path fill-rule="evenodd" clip-rule="evenodd" d="M5.66667 1.66668C5.66667 1.20644 5.29357 0.833344 4.83334 0.833344C4.3731 0.833344 4 1.20644 4 1.66668V2.50001H3.16667C2.50363 2.50001 1.86775 2.7634 1.3989 3.23224C0.930064 3.70108 0.666672 4.33697 0.666672 5.00001V15.8333C0.666672 16.4964 0.930064 17.1323 1.3989 17.6011C1.86775 18.07 2.50363 18.3333 3.16667 18.3333H14.8333C15.4964 18.3333 16.1323 18.07 16.6011 17.6011C17.0699 17.1323 17.3333 16.4964 17.3333 15.8333V5.00001C17.3333 4.33697 17.0699 3.70108 16.6011 3.23224C16.1323 2.7634 15.4964 2.50001 14.8333 2.50001H14.4167C13.9564 2.50001 13.5833 2.87311 13.5833 3.33334C13.5833 3.79358 13.9564 4.16668 14.4167 4.16668H14.8333C15.0543 4.16668 15.2663 4.25447 15.4226 4.41075C15.5789 4.56703 15.6667 4.779 15.6667 5.00001V7.50001H2.33334V5.00001C2.33334 4.779 2.42114 4.56703 2.57742 4.41075C2.7337 4.25447 2.94566 4.16668 3.16667 4.16668H4V5.00001C4 5.46025 4.3731 5.83334 4.83334 5.83334C5.29357 5.83334 5.66667 5.46025 5.66667 5.00001V1.66668ZM2.57742 16.4226C2.42114 16.2663 2.33334 16.0544 2.33334 15.8333V9.16668H15.6667V15.8333C15.6667 16.0544 15.5789 16.2663 15.4226 16.4226C15.2663 16.5789 15.0543 16.6667 14.8333 16.6667H3.16667C2.94566 16.6667 2.7337 16.5789 2.57742 16.4226Z" fill="#5C5E64"/>
<path d="M12.3333 1.66668C12.3333 1.20644 11.9602 0.833344 11.5 0.833344C11.0398 0.833344 10.6667 1.20644 10.6667 1.66668V2.50001H7.75C7.28977 2.50001 6.91667 2.87311 6.91667 3.33334C6.91667 3.79358 7.28977 4.16668 7.75 4.16668H10.6667V5.00001C10.6667 5.46025 11.0398 5.83334 11.5 5.83334C11.9602 5.83334 12.3333 5.46025 12.3333 5.00001V1.66668Z" fill="#5C5E64"/>
</svg>
