<svg width="2" height="14" viewBox="0 0 2 14" fill="none" xmlns="http://www.w3.org/2000/svg">
<path d="M1.23603 7.2359C1.17352 7.29841 1.08873 7.33353 1.00033 7.33353C0.91192 7.33353 0.827135 7.29841 0.764623 7.2359C0.702111 7.17338 0.666992 7.0886 0.666992 7.00019C0.666992 6.91179 0.702111 6.827 0.764623 6.76449C0.827135 6.70198 0.91192 6.66686 1.00033 6.66686C1.08873 6.66686 1.17352 6.70198 1.23603 6.76449C1.29854 6.827 1.33366 6.91179 1.33366 7.00019C1.33366 7.0886 1.29854 7.17338 1.23603 7.2359Z" fill="black"/>
<path d="M1.23603 12.5692C1.17352 12.6317 1.08873 12.6669 1.00033 12.6669C0.91192 12.6669 0.827135 12.6317 0.764623 12.5692C0.702111 12.5067 0.666992 12.4219 0.666992 12.3335C0.666992 12.2451 0.702111 12.1603 0.764623 12.0978C0.827135 12.0353 0.91192 12.0002 1.00033 12.0002C1.08873 12.0002 1.17352 12.0353 1.23603 12.0978C1.29854 12.1603 1.33366 12.2451 1.33366 12.3335C1.33366 12.4219 1.29854 12.5067 1.23603 12.5692Z" fill="black"/>
<path d="M1.23603 1.90256C1.17352 1.96507 1.08873 2.00019 1.00033 2.00019C0.91192 2.00019 0.827135 1.96507 0.764623 1.90256C0.702111 1.84005 0.666992 1.75527 0.666992 1.66686C0.666992 1.57845 0.702111 1.49367 0.764623 1.43116C0.827135 1.36865 0.91192 1.33353 1.00033 1.33353C1.08873 1.33353 1.17352 1.36865 1.23603 1.43116C1.29854 1.49367 1.33366 1.57845 1.33366 1.66686C1.33366 1.75527 1.29854 1.84005 1.23603 1.90256Z" fill="black"/>
<path d="M1.23603 7.2359C1.17352 7.29841 1.08873 7.33353 1.00033 7.33353C0.91192 7.33353 0.827135 7.29841 0.764623 7.2359C0.702111 7.17338 0.666992 7.0886 0.666992 7.00019C0.666992 6.91179 0.702111 6.827 0.764623 6.76449C0.827135 6.70198 0.91192 6.66686 1.00033 6.66686C1.08873 6.66686 1.17352 6.70198 1.23603 6.76449C1.29854 6.827 1.33366 6.91179 1.33366 7.00019C1.33366 7.0886 1.29854 7.17338 1.23603 7.2359Z" stroke="black" stroke-width="1.33333" stroke-linecap="round" stroke-linejoin="round"/>
<path d="M1.23603 12.5692C1.17352 12.6317 1.08873 12.6669 1.00033 12.6669C0.91192 12.6669 0.827135 12.6317 0.764623 12.5692C0.702111 12.5067 0.666992 12.4219 0.666992 12.3335C0.666992 12.2451 0.702111 12.1603 0.764623 12.0978C0.827135 12.0353 0.91192 12.0002 1.00033 12.0002C1.08873 12.0002 1.17352 12.0353 1.23603 12.0978C1.29854 12.1603 1.33366 12.2451 1.33366 12.3335C1.33366 12.4219 1.29854 12.5067 1.23603 12.5692Z" stroke="black" stroke-width="1.33333" stroke-linecap="round" stroke-linejoin="round"/>
<path d="M1.23603 1.90256C1.17352 1.96507 1.08873 2.00019 1.00033 2.00019C0.91192 2.00019 0.827135 1.96507 0.764623 1.90256C0.702111 1.84005 0.666992 1.75527 0.666992 1.66686C0.666992 1.57845 0.702111 1.49367 0.764623 1.43116C0.827135 1.36865 0.91192 1.33353 1.00033 1.33353C1.08873 1.33353 1.17352 1.36865 1.23603 1.43116C1.29854 1.49367 1.33366 1.57845 1.33366 1.66686C1.33366 1.75527 1.29854 1.84005 1.23603 1.90256Z" stroke="black" stroke-width="1.33333" stroke-linecap="round" stroke-linejoin="round"/>
</svg>
